<svg xmlns="http://www.w3.org/2000/svg" viewBox="0 0 64 64" width="64" height="64">
  <circle cx="32" cy="32" r="31" fill="#1a1a1a"/>
  <g fill="none" stroke="#d4a857" stroke-linecap="round" stroke-linejoin="round">
    <!-- Hair outline -->
    <path d="M18 26c0-10 6-16 14-16s14 6 14 16" stroke-width="2.5"/>
    <!-- Hair volume/waves -->
    <path d="M19 24c1-8 5.5-13 13-13s12 5 13 13" stroke-width="1.5"/>
    <path d="M21 22c1.5-6 5-10 11-10s9.5 4 11 10" stroke-width="1"/>
    <!-- Face outline -->
    <path d="M20 26v6c0 8 5 14 12 14s12-6 12-14v-6" stroke-width="2"/>
    <!-- Eyebrows -->
    <path d="M24 27c1.5-1.5 4-1.5 5.5 0" stroke-width="1.5"/>
    <path d="M34.5 27c1.5-1.5 4-1.5 5.5 0" stroke-width="1.5"/>
    <!-- Eyes -->
    <circle cx="27" cy="30" r="1.5" fill="#d4a857" stroke="none"/>
    <circle cx="37" cy="30" r="1.5" fill="#d4a857" stroke="none"/>
    <!-- Nose -->
    <path d="M32 28v6M29 34h6" stroke-width="1.2"/>
    <!-- Mustache -->
    <path d="M25 37c2-2 5-2 7-1M39 37c-2-2-5-2-7-1" stroke-width="1.8"/>
    <!-- Beard -->
    <path d="M22 38c1 6 5 9 10 10c5-1 9-4 10-10" stroke-width="2"/>
    <path d="M24 40c1 4 4 7 8 7.5c4-.5 7-3.5 8-7.5" stroke-width="1.2"/>
    <path d="M26 42c1 3 3 5 6 5.5c3-.5 5-2.5 6-5.5" stroke-width="1"/>
    <!-- Ear hints -->
    <path d="M19 28c-2 1-3 3-2 5" stroke-width="1.2"/>
    <path d="M45 28c2 1 3 3 2 5" stroke-width="1.2"/>
  </g>
</svg>
